C:\Users\u0145647\OneDrive - KU Leuven\KU Leuven\BCN_Workshop\ParameterEstimation\Data_CP1\IPSA\JointAngles\JointAngles_segment_2.mot
version=1
nRows=94
nColumns=4
inDegrees=yes
endheader
                time	         pelvis_tilt	       hip_flexion_l	        knee_angle_l	
          1.61500000	         90.00000000	         90.00000000	       -113.32547823	
          1.62000000	         90.00000000	         90.00000000	       -113.32981596	
          1.62500000	         90.00000000	         90.00000000	       -113.33402072	
          1.63000000	         90.00000000	         90.00000000	       -113.33811707	
          1.63500000	         90.00000000	         90.00000000	       -113.34212541	
          1.64000000	         90.00000000	         90.00000000	       -113.34605960	
          1.64500000	         90.00000000	         90.00000000	       -113.34992500	
          1.65000000	         90.00000000	         90.00000000	       -113.35371930	
          1.65500000	         90.00000000	         90.00000000	       -113.35743431	
          1.66000000	         90.00000000	         90.00000000	       -113.36105738	
          1.66500000	         90.00000000	         90.00000000	       -113.36457279	
          1.67000000	         90.00000000	         90.00000000	       -113.36796640	
          1.67500000	         90.00000000	         90.00000000	       -113.37122945	
          1.68000000	         90.00000000	         90.00000000	       -113.37435590	
          1.68500000	         90.00000000	         90.00000000	       -113.37733927	
          1.69000000	         90.00000000	         90.00000000	       -113.38017214	
          1.69500000	         90.00000000	         90.00000000	       -113.38284441	
          1.70000000	         90.00000000	         90.00000000	       -113.38534400	
          1.70500000	         90.00000000	         90.00000000	       -113.38766148	
          1.71000000	         90.00000000	         90.00000000	       -113.38979216	
          1.71500000	         90.00000000	         90.00000000	       -113.39173650	
          1.72000000	         90.00000000	         90.00000000	       -113.39349575	
          1.72500000	         90.00000000	         90.00000000	       -113.39507131	
          1.73000000	         90.00000000	         90.00000000	       -113.39646472	
          1.73500000	         90.00000000	         90.00000000	       -113.39767747	
          1.74000000	         90.00000000	         90.00000000	       -113.39870951	
          1.74500000	         90.00000000	         90.00000000	       -113.39955961	
          1.75000000	         90.00000000	         90.00000000	       -113.40022563	
          1.75500000	         90.00000000	         90.00000000	       -113.40070486	
          1.76000000	         90.00000000	         90.00000000	       -113.40099445	
          1.76500000	         90.00000000	         90.00000000	       -113.40109076	
          1.77000000	         90.00000000	         90.00000000	       -113.40099232	
          1.77500000	         90.00000000	         90.00000000	       -113.40069911	
          1.78000000	         90.00000000	         90.00000000	       -113.40021275	
          1.78500000	         90.00000000	         90.00000000	       -113.39953446	
          1.79000000	         90.00000000	         90.00000000	       -113.39866567	
          1.79500000	         90.00000000	         90.00000000	       -113.39760574	
          1.80000000	         90.00000000	         90.00000000	       -113.39634904	
          1.80500000	         90.00000000	         90.00000000	       -113.39488340	
          1.81000000	         90.00000000	         90.00000000	       -113.39319194	
          1.81500000	         90.00000000	         90.00000000	       -113.39125704	
          1.82000000	         90.00000000	         90.00000000	       -113.38906400	
          1.82500000	         90.00000000	         90.00000000	       -113.38660175	
          1.83000000	         90.00000000	         90.00000000	       -113.38386048	
          1.83500000	         90.00000000	         90.00000000	       -113.38082865	
          1.84000000	         90.00000000	         90.00000000	       -113.37749216	
          1.84500000	         90.00000000	         90.00000000	       -113.37383363	
          1.85000000	         90.00000000	         90.00000000	       -113.36983478	
          1.85500000	         90.00000000	         90.00000000	       -113.36547669	
          1.86000000	         90.00000000	         90.00000000	       -113.36074098	
          1.86500000	         90.00000000	         90.00000000	       -113.35561204	
          1.87000000	         90.00000000	         90.00000000	       -113.35007374	
          1.87500000	         90.00000000	         90.00000000	       -113.34410548	
          1.88000000	         90.00000000	         90.00000000	       -113.33768199	
          1.88500000	         90.00000000	         90.00000000	       -113.33077675	
          1.89000000	         90.00000000	         90.00000000	       -113.32336501	
          1.89500000	         90.00000000	         90.00000000	       -113.31542432	
          1.90000000	         90.00000000	         90.00000000	       -113.30693490	
          1.90500000	         90.00000000	         90.00000000	       -113.29787961	
          1.91000000	         90.00000000	         90.00000000	       -113.28824456	
          1.91500000	         90.00000000	         90.00000000	       -113.27801966	
          1.92000000	         90.00000000	         90.00000000	       -113.26719783	
          1.92500000	         90.00000000	         90.00000000	       -113.25577405	
          1.93000000	         90.00000000	         90.00000000	       -113.24374504	
          1.93500000	         90.00000000	         90.00000000	       -113.23110974	
          1.94000000	         90.00000000	         90.00000000	       -113.21786993	
          1.94500000	         90.00000000	         90.00000000	       -113.20402958	
          1.95000000	         90.00000000	         90.00000000	       -113.18959523	
          1.95500000	         90.00000000	         90.00000000	       -113.17457378	
          1.96000000	         90.00000000	         90.00000000	       -113.15897213	
          1.96500000	         90.00000000	         90.00000000	       -113.14279709	
          1.97000000	         90.00000000	         90.00000000	       -113.12605684	
          1.97500000	         90.00000000	         90.00000000	       -113.10876066	
          1.98000000	         90.00000000	         90.00000000	       -113.09091803	
          1.98500000	         90.00000000	         90.00000000	       -113.07253931	
          1.99000000	         90.00000000	         90.00000000	       -113.05363477	
          1.99500000	         90.00000000	         90.00000000	       -113.03421339	
          2.00000000	         90.00000000	         90.00000000	       -113.01428153	
          2.00500000	         90.00000000	         90.00000000	       -112.99384312	
          2.01000000	         90.00000000	         90.00000000	       -112.97289903	
          2.01500000	         90.00000000	         90.00000000	       -112.95144762	
          2.02000000	         90.00000000	         90.00000000	       -112.92948614	
          2.02500000	         90.00000000	         90.00000000	       -112.90701194	
          2.03000000	         90.00000000	         90.00000000	       -112.88402177	
          2.03500000	         90.00000000	         90.00000000	       -112.86051399	
          2.04000000	         90.00000000	         90.00000000	       -112.83648878	
          2.04500000	         90.00000000	         90.00000000	       -112.81194705	
          2.05000000	         90.00000000	         90.00000000	       -112.78688791	
          2.05500000	         90.00000000	         90.00000000	       -112.76130606	
          2.06000000	         90.00000000	         90.00000000	       -112.73519372	
          2.06500000	         90.00000000	         90.00000000	       -112.70854537	
          2.07000000	         90.00000000	         90.00000000	       -112.68136025	
          2.07500000	         90.00000000	         90.00000000	       -112.65364047	
          2.08000000	         90.00000000	         90.00000000	       -112.62538975	
